<!-- <svg xmlns="http://www.w3.org/2000/svg" x="0px" y="0px" width="48" height="48" viewBox="0 0 48 48">
<path fill="#0277BD" d="M24.047,5c-1.555,0.005-2.633,0.142-3.936,0.367c-3.848,0.67-4.549,2.077-4.549,4.67V14h9v2H15.22h-4.35c-2.636,0-4.943,1.242-5.674,4.219c-0.826,3.417-0.863,5.557,0,9.125C5.851,32.005,7.294,34,9.931,34h3.632v-5.104c0-2.966,2.686-5.896,5.764-5.896h7.236c2.523,0,5-1.862,5-4.377v-8.586c0-2.439-1.759-4.263-4.218-4.672C27.406,5.359,25.589,4.994,24.047,5z M19.063,9c0.821,0,1.5,0.677,1.5,1.502c0,0.833-0.679,1.498-1.5,1.498c-0.837,0-1.5-0.664-1.5-1.498C17.563,9.68,18.226,9,19.063,9z"></path>
<path fill="#FFC107" d="M23.078,43c1.555-0.005,2.633-0.142,3.936-0.367c3.848-0.67,4.549-2.077,4.549-4.67V34h-9v-2h9.343h4.35c2.636,0,4.943-1.242,5.674-4.219c0.826-3.417,0.863-5.557,0-9.125C41.274,15.995,39.831,14,37.194,14h-3.632v5.104c0,2.966-2.686,5.896-5.764,5.896h-7.236c-2.523,0-5,1.862-5,4.377v8.586c0,2.439,1.759,4.263,4.218,4.672C19.719,42.641,21.536,43.006,23.078,43z M28.063,39c-0.821,0-1.5-0.677-1.5-1.502c0-0.833,0.679-1.498,1.5-1.498c0.837,0,1.5,0.664,1.5,1.498C29.563,38.32,28.899,39,28.063,39z"></path>
</svg> -->


<!-- <svg xmlns="http://www.w3.org/2000/svg" width="1.01em" height="1em" viewBox="0 0 256 255"><defs><linearGradient id="logosPython0" x1="12.959%" x2="79.639%" y1="12.039%" y2="78.201%">
<stop offset="0%" stop-color="#387eb8"/><stop offset="100%" stop-color="#366994"/></linearGradient><linearGradient id="logosPython1" x1="19.128%" x2="90.742%" y1="20.579%" y2="88.429%"><stop offset="0%" stop-color="#ffe052"/><stop offset="100%" stop-color="#ffc331"/></linearGradient></defs><path fill="url(#logosPython0)" d="M126.916.072c-64.832 0-60.784 28.115-60.784 28.115l.072 29.128h61.868v8.745H41.631S.145 61.355.145 126.77c0 65.417 36.21 63.097 36.21 63.097h21.61v-30.356s-1.165-36.21 35.632-36.21h61.362s34.475.557 34.475-33.319V33.97S194.67.072 126.916.072M92.802 19.66a11.12 11.12 0 0 1 11.13 11.13a11.12 11.12 0 0 1-11.13 11.13a11.12 11.12 0 0 1-11.13-11.13a11.12 11.12 0 0 1 11.13-11.13"/>
<path fill="url(#logosPython1)" d="M128.757 254.126c64.832 0 60.784-28.115 60.784-28.115l-.072-29.127H127.6v-8.745h86.441s41.486 4.705 41.486-60.712c0-65.416-36.21-63.096-36.21-63.096h-21.61v30.355s1.165 36.21-35.632 36.21h-61.362s-34.475-.557-34.475 33.32v56.013s-5.235 33.897 62.518 33.897m34.114-19.586a11.12 11.12 0 0 1-11.13-11.13a11.12 11.12 0 0 1 11.13-11.131a11.12 11.12 0 0 1 11.13 11.13a11.12 11.12 0 0 1-11.13 11.13"/></svg> -->


<svg width="50" height="50" viewBox="0 0 50 50" fill="none" xmlns="http://www.w3.org/2000/svg">
  <path d="M25 0C11.2 0 12 5.6 12 5.6V10h13v2H7.6C7.6 12 0 11.2 0 25s7.6 13 7.6 13H12v-4.4c0 0-0.8-7.6 7.6-7.6h12.8c0 0 7.6 0 7.6-7.6V7.6C40 7.6 40 0 25 0zM18 5.6c1.4 0 2.4 1 2.4 2.4 0 1.4-1 2.4-2.4 2.4-1.4 0-2.4-1-2.4-2.4C15.6 6.6 16.6 5.6 18 5.6z" fill="#3776AB"/>
  <path d="M25 50c13.8 0 13-5.6 13-5.6V40H25v-2h17.4c0 0 7.6 0.8 7.6-13s-7.6-13-7.6-13H38v4.4c0 0 0.8 7.6-7.6 7.6H17.6C17.6 24 10 24 10 31.6v11.8C10 43.4 10 50 25 50zM32 44.4c-1.4 0-2.4-1-2.4-2.4 0-1.4 1-2.4 2.4-2.4 1.4 0 2.4 1 2.4 2.4C34.4 43.4 33.4 44.4 32 44.4z" fill="#FFC331"/>
</svg>